<?xml version="1.0" standalone="no"?><!DOCTYPE svg PUBLIC "-//W3C//DTD SVG 1.1//EN" "http://www.w3.org/Graphics/SVG/1.1/DTD/svg11.dtd"><svg height="20px"
width="20px" t="1572094142572" class="icon" viewBox="0 0 1024 1024" version="1.1" xmlns="http://www.w3.org/2000/svg" p-id="26228" xmlns:xlink="http://www.w3.org/1999/xlink" width="200" height="200"><defs><style type="text/css"></style></defs><path d="M472.416 392c-4.72-119.12 47.904-188.56 153.984-188.56 60.736 0 78.608-25.232 65.152-100.384a40 40 0 0 1 78.736-14.112c21.76 121.44-30.032 194.496-143.888 194.496-55.52 0-78.896 29.664-74.032 108.56H912a88 88 0 0 1 88 88v408A88 88 0 0 1 912 976H112a88 88 0 0 1-88-88V480A88 88 0 0 1 112 392h360.416zM112 472a8 8 0 0 0-8 8v408a8 8 0 0 0 8 8h800a8 8 0 0 0 8-8V480a8 8 0 0 0-8-8H112z m50.672 34.672H208a24 24 0 0 1 24 24V576a24 24 0 0 1-24 24h-45.328a24 24 0 0 1-24-24v-45.328a24 24 0 0 1 24-24z m0 130.656H264a24 24 0 0 1 24 24v45.344a24 24 0 0 1-24 24h-101.328a24 24 0 0 1-24-24v-45.344a24 24 0 0 1 24-24z m130.656-130.656h45.344a24 24 0 0 1 24 24V576a24 24 0 0 1-24 24h-45.344a24 24 0 0 1-24-24v-45.328a24 24 0 0 1 24-24z m0 261.328h437.344a24 24 0 0 1 24 24v45.328a24 24 0 0 1-24 24H293.328a24 24 0 0 1-24-24V792a24 24 0 0 1 24-24zM424 506.672h45.328a24 24 0 0 1 24 24V576a24 24 0 0 1-24 24H424A24 24 0 0 1 400 576v-45.328a24 24 0 0 1 24-24z m130.672 0H600a24 24 0 0 1 24 24V576a24 24 0 0 1-24 24h-45.328a24 24 0 0 1-24-24v-45.328a24 24 0 0 1 24-24z m130.656 0h45.344a24 24 0 0 1 24 24V576a24 24 0 0 1-24 24h-45.344a24 24 0 0 1-24-24v-45.328a24 24 0 0 1 24-24z m130.672 0h45.328a24 24 0 0 1 24 24V576a24 24 0 0 1-24 24H816a24 24 0 0 1-24-24v-45.328a24 24 0 0 1 24-24zM816 768h45.328a24 24 0 0 1 24 24v45.328a24 24 0 0 1-24 24H816a24 24 0 0 1-24-24V792A24 24 0 0 1 816 768z m-466.672-130.672h45.344a24 24 0 0 1 24 24v45.344a24 24 0 0 1-24 24h-45.344a24 24 0 0 1-24-24v-45.344a24 24 0 0 1 24-24z m130.672 0h45.328a24 24 0 0 1 24 24v45.344a24 24 0 0 1-24 24H480a24 24 0 0 1-24-24v-45.344a24 24 0 0 1 24-24z m130.672 0H656a24 24 0 0 1 24 24v45.344a24 24 0 0 1-24 24h-45.328a24 24 0 0 1-24-24v-45.344a24 24 0 0 1 24-24z m130.656 0h120a24 24 0 0 1 24 24v45.344a24 24 0 0 1-24 24h-120a24 24 0 0 1-24-24v-45.344a24 24 0 0 1 24-24zM162.672 768H208a24 24 0 0 1 24 24v45.328a24 24 0 0 1-24 24h-45.328a24 24 0 0 1-24-24V792a24 24 0 0 1 24-24z" p-id="26229"></path></svg>
