<?xml version="1.0" standalone="no"?><!DOCTYPE svg PUBLIC "-//W3C//DTD SVG
1.1//EN" "http://www.w3.org/Graphics/SVG/1.1/DTD/svg11.dtd"><svg height="22px"
width="22px" t="1572093982528" class="icon" viewBox="0 0 1129 1024" version="1.1" xmlns="http://www.w3.org/2000/svg" p-id="23488" xmlns:xlink="http://www.w3.org/1999/xlink" width="220.5078125" height="200"><defs><style type="text/css"></style></defs><path d="M812.137931 470.804598v-41.195403c0-23.54023-17.655172-35.310345-41.195402-35.310344H194.206897c-23.54023 0-41.195402 17.655172-41.195403 35.310344v264.827587c0 123.586207 111.816092 229.517241 247.172414 229.517241h164.781609c105.931034 0 200.091954-58.850575 235.402299-153.011494h11.770115c88.275862 0 164.781609-70.62069 164.781609-153.011495S900.413793 470.804598 812.137931 470.804598z m0 223.632184V547.310345c47.08046 0 82.390805 35.310345 82.390805 76.505747 0 35.310345-35.310345 70.62069-82.390805 70.62069z m-247.172414 170.666666H400.183908c-105.931034 0-188.321839-76.505747-188.321839-170.666666V453.149425h541.425287v270.712644l-11.770115 23.54023c-23.54023 70.62069-94.16092 117.701149-176.551724 117.701149zM470.804598 341.333333c5.885057 5.885057 11.770115 11.770115 17.655172 11.770115 5.885057 0 17.655172-5.885057 23.54023-11.770115 11.770115-11.770115 11.770115-29.425287 0-41.195402 0 0-35.310345-35.310345-35.310345-105.931034 0-41.195402 41.195402-82.390805 58.850575-94.16092 11.770115-11.770115 11.770115-29.425287 0-41.195402-5.885057-11.770115-29.425287-11.770115-41.195402 0 0 0-70.62069 58.850575-76.505748 135.356322C411.954023 288.367816 470.804598 341.333333 470.804598 341.333333zM653.241379 347.218391c5.885057 0 17.655172 0 23.54023-5.885058 11.770115-11.770115 11.770115-29.425287 0-41.195402 0 0-17.655172-17.655172-11.770115-47.08046 0-17.655172 17.655172-41.195402 23.54023-41.195402 11.770115-11.770115 11.770115-29.425287 0-41.195402-11.770115-11.770115-29.425287-11.770115-41.195402 0-5.885057 5.885057-41.195402 41.195402-41.195402 82.390804-5.885057 58.850575 29.425287 88.275862 29.425287 94.16092h17.655172zM282.482759 347.218391c5.885057 0 17.655172 0 23.54023-5.885058 11.770115-11.770115 11.770115-29.425287 0-41.195402 0 0-17.655172-17.655172-11.770115-47.08046 0-17.655172 17.655172-41.195402 23.540229-47.08046 11.770115-11.770115 11.770115-29.425287 0-41.195402-11.770115-11.770115-29.425287-11.770115-41.195402 0-5.885057 0-41.195402 35.310345-47.08046 82.390805-5.885057 58.850575 29.425287 88.275862 29.425288 94.160919 5.885057 5.885057 17.655172 5.885057 23.54023 5.885058z" p-id="23489"></path></svg>
